<?xml version="1.0" encoding="UTF-8"?>
<!-- Generator: Adobe Illustrator 14.0.0, SVG Export Plug-In . SVG Version: 6.00 Build 43363)  -->
<!DOCTYPE svg PUBLIC "-//W3C//DTD SVG 1.1//EN" "http://www.w3.org/Graphics/SVG/1.1/DTD/svg11.dtd">
<svg version="1.1" id="svg2" xmlns:svg="http://www.w3.org/2000/svg" xmlns="http://www.w3.org/2000/svg" xmlns:xlink="http://www.w3.org/1999/xlink" x="0px" y="0px" width="400px" height="400px" viewBox="0 0 400 400" enable-background="new 0 0 400 400" xml:space="preserve">
<g id="g2189">
	<path id="path2174" fill="#D42E12" d="M196.875,0.573c-15.417,0.254-28.753,5.049-51.938,14.188   c-33.003,11.509-49.412,8.456-80.375-4.188l-52.25,53l14.125,15.406c27.976,30.542,29.546,69.801,5.125,126.968   c-18.837,44.097-20.11,85.461-3.406,110.719c16.299,24.646,47.536,40.285,90.25,45.156c42.74,6.117,50.558,11.646,81.594,37.625   c31.035-25.979,38.822-31.508,81.563-37.625c42.714-4.871,73.951-20.51,90.25-45.156c16.704-25.258,15.462-66.622-3.375-110.719   c-24.421-57.167-22.851-96.426,5.125-126.968l14.125-15.406l-52.281-53c-30.963,12.643-47.341,15.697-80.344,4.188   C230.333,5.013,216.795,0.196,200,0.573C198.95,0.549,197.903,0.556,196.875,0.573z"/>
	<path id="path1873" fill="#0035AD" d="M196.875,0.563c-15.417,0.254-28.753,5.049-51.938,14.188   c-33.003,11.509-49.412,8.456-80.375-4.188l-52.25,53l14.125,15.406c24.021,26.225,28.56,58.915,13.906,103.813h319.313   c-14.653-44.898-10.115-77.587,13.906-103.813l14.125-15.406l-52.281-53c-30.963,12.644-47.341,15.697-80.344,4.188   C230.333,5.002,216.795,0.186,200,0.563C198.95,0.539,197.903,0.545,196.875,0.563z"/>
	<path id="path3655" fill="#FFFFFF" d="M198.881,70.861l23.511,79.471l82.864-1.356l-68.315,46.918l26.896,78.389l-65.733-50.474   l-66.241,49.804l27.691-78.112l-67.836-47.609l82.846,2.198L198.881,70.861z"/>
</g>
</svg>